# xmcd
#
# Track frame offsets:
#       150
#       26376
#       35699
#       46941
#       63713
#       87346
#       107453
#       129351
#       157970
#       170686
#
# Disc length: 2452 seconds
#
# Revision: 1
# Processed by: cddbd v1.5.2PL0 Copyright (c) Steve Scherf et al.
# Submitted via: MusiCat 1.0
#
DISCID=7a09920a
DTITLE=Segundo Cruz - Street Alone
DYEAR=1900
DGENRE=
TTITLE0=Aranjuez - Autumn Leaves
TTITLE1=All of Me
TTITLE2=Corcovado
TTITLE3=Eu Sei Que Voy Te Amar
TTITLE4=Sexy Blues - La Historia de un Camello
TTITLE5=Satin Doll
TTITLE6=Georgia On My Mind
TTITLE7=Deja Vu - Besame Swing
TTITLE8=Rock Me Baby
TTITLE9=The Blues Man
EXTD=0\n\n\n
EXTT0=
EXTT1=
EXTT2=
EXTT3=
EXTT4=
EXTT5=
EXTT6=
EXTT7=
EXTT8=
EXTT9=
PLAYORDER=
